<svg width="24" height="24" viewBox="0 0 24 24" fill="none" xmlns="http://www.w3.org/2000/svg">
<g id="Frame">
<path id="Vector" d="M4.54419 16.583H19.4565C19.9409 16.583 20.3337 16.1833 20.3337 15.6902V4.97586C20.3337 4.48275 19.9409 4.08301 19.4565 4.08301H4.54419C4.05972 4.08301 3.66699 4.48275 3.66699 4.97586V15.6902C3.66699 16.1833 4.05972 16.583 4.54419 16.583Z" stroke="#6146FE" stroke-width="1.5" stroke-linecap="round"/>
<g id="ABC">
<path d="M8.23647 8.30818C8.14201 8.06378 7.90697 7.90265 7.64496 7.90265C7.38263 7.90265 7.14738 8.06416 7.05313 8.30898L5.60458 12.0718C5.47371 12.4118 5.72464 12.7773 6.08893 12.7773C6.31108 12.7773 6.5086 12.6359 6.58022 12.4256L6.77825 11.8442H8.51103L8.70837 12.4236C8.7804 12.6351 8.97905 12.7773 9.20248 12.7773C9.56916 12.7773 9.82155 12.4092 9.68936 12.0671L8.23647 8.30818ZM7.06579 11.0155L7.64086 9.32326L8.2235 11.0155H7.06579Z" fill="#6146FE"/>
<path d="M13.9397 10.6742C13.8262 10.5071 13.6598 10.3678 13.4479 10.2703C13.6295 10.1728 13.7733 10.0475 13.8792 9.88036C14.0003 9.6993 14.0608 9.49735 14.0608 9.27451C14.0608 8.84276 13.917 8.50153 13.6219 8.2578C13.3268 8.02103 12.9258 7.90265 12.4037 7.90265H11.1531C10.7113 7.90265 10.3531 8.26082 10.3531 8.70265V11.9773C10.3531 12.4191 10.7113 12.7773 11.1531 12.7773H12.4869C13.0015 12.7773 13.4025 12.6519 13.69 12.4082C13.9851 12.1575 14.1289 11.8093 14.1289 11.3636C14.1289 11.0921 14.0608 10.8692 13.9397 10.6742ZM11.42 9.86643V8.76616H12.328C12.5399 8.76616 12.7064 8.8149 12.8199 8.9124C12.9258 9.00292 12.9863 9.1422 12.9863 9.33022C12.9863 9.50432 12.9258 9.63663 12.8199 9.72716C12.7064 9.81769 12.5399 9.86643 12.328 9.86643H11.42ZM12.8955 11.7536C12.782 11.8581 12.6156 11.9138 12.3886 11.9138H11.42V10.7299H12.3886C12.6156 10.7299 12.7896 10.7787 12.8955 10.8831C13.0015 10.9806 13.062 11.1199 13.062 11.301C13.062 11.496 13.009 11.6422 12.8955 11.7536Z" fill="#6146FE"/>
<path d="M14.8073 9.78287V10.8831C14.8073 12.1784 15.4581 12.833 16.7444 12.833C17.3346 12.833 17.8037 12.6937 18.1367 12.4082C18.3899 12.2005 18.547 11.93 18.6138 11.597C18.6204 11.5642 18.6259 11.5248 18.6304 11.4814C18.6604 11.1925 18.4158 10.9561 18.1253 10.9561C17.8349 10.9561 17.6253 11.1976 17.5515 11.4785C17.5396 11.5238 17.5248 11.5643 17.5063 11.597C17.4744 11.6535 17.4346 11.7034 17.3876 11.7467C17.2438 11.879 17.0395 11.9486 16.7671 11.9486C16.4569 11.9486 16.2374 11.865 16.0937 11.6979C15.9499 11.5238 15.8818 11.2522 15.8818 10.8692V9.83162C15.8818 9.42772 15.9499 9.13524 16.0937 8.96114C16.2223 8.79401 16.4417 8.70348 16.752 8.70348C17.0244 8.70348 17.2362 8.77312 17.38 8.9124C17.4588 8.98495 17.5172 9.07425 17.5538 9.17916C17.5547 9.18176 17.5556 9.18444 17.5565 9.1872C17.6452 9.46814 17.8383 9.71762 18.1329 9.71762C18.4275 9.71762 18.6865 9.4767 18.648 9.18461C18.6477 9.18276 18.6475 9.18094 18.6472 9.17916C18.5934 8.79706 18.4257 8.48871 18.1442 8.2578C17.8037 7.97925 17.3422 7.83301 16.7595 7.83301C15.4656 7.83301 14.8073 8.4876 14.8073 9.78287Z" fill="#6146FE"/>
</g>
<path id="Vector_2" d="M3.66992 19.917H14.9169M20.3336 19.917H17.8336" stroke="#6146FE" stroke-width="1.5" stroke-linecap="round" stroke-linejoin="round"/>
</g>
</svg>
