<svg width="20" height="20" viewBox="0 0 20 20" fill="none" xmlns="http://www.w3.org/2000/svg">
<path d="M13.8342 9.68416C13.1263 9.68239 12.4297 9.86141 11.8105 10.2042C11.1912 10.5471 10.6699 11.0423 10.2959 11.6431C9.92193 12.2438 9.70769 12.93 9.67351 13.6368C9.63933 14.3435 9.78636 15.0472 10.1006 15.6812H4.44955C4.13956 15.6812 3.84224 15.5582 3.62282 15.3394C3.4034 15.1205 3.27981 14.8236 3.27917 14.5137V4.43879C3.28087 4.12964 3.40492 3.83374 3.62422 3.61574C3.84353 3.39774 4.14025 3.27537 4.44955 3.27537H10.7582V4.88417C10.7589 5.53198 11.0165 6.15311 11.4746 6.61134C11.9328 7.06956 12.554 7.32748 13.2022 7.32854H15.1621V8.74383C15.1621 8.91349 15.2296 9.07619 15.3496 9.19616C15.4696 9.31612 15.6324 9.38351 15.8021 9.38351C15.9719 9.38351 16.1346 9.31612 16.2547 9.19616C16.3747 9.07619 16.4421 8.91349 16.4421 8.74383V6.73684C16.442 6.53449 16.4017 6.33417 16.3236 6.1475C16.2455 5.96083 16.131 5.79152 15.9869 5.64938L12.787 2.45098C12.644 2.3074 12.4739 2.19361 12.2866 2.1162C12.0993 2.03878 11.8985 1.99929 11.6958 2.00001H4.44955C3.80066 1.99937 3.17809 2.25635 2.71873 2.71444C2.25938 3.17253 2.00085 3.79421 2 4.44279V14.5177C2.00233 15.1653 2.26151 15.7856 2.72071 16.2425C3.1799 16.6994 3.80163 16.9556 4.44955 16.9549H11.0822C11.5865 17.4012 12.1916 17.7185 12.8456 17.8794C13.4997 18.0404 14.183 18.0402 14.8369 17.8789C15.4909 17.7175 16.0958 17.3999 16.5998 16.9533C17.1038 16.5067 17.4917 15.9444 17.7303 15.3148C17.9689 14.6852 18.0509 14.0072 17.9694 13.3389C17.8879 12.6706 17.6453 12.0321 17.2623 11.4783C16.8794 10.9244 16.3677 10.4718 15.7711 10.1593C15.1745 9.84676 14.5109 9.68372 13.8374 9.68416H13.8342ZM14.587 6.04918H13.2022C12.8921 6.04918 12.5946 5.92615 12.3752 5.70712C12.1557 5.48808 12.0322 5.19094 12.0318 4.88097V3.50246L14.587 6.04918ZM13.8342 16.7182C13.2649 16.7165 12.709 16.5462 12.2366 16.2288C11.7641 15.9115 11.3964 15.4613 11.1797 14.9352C10.9631 14.409 10.9073 13.8305 11.0194 13.2727C11.1316 12.7149 11.4065 12.2028 11.8096 11.8011C12.2128 11.3995 12.7259 11.1262 13.2843 11.0158C13.8428 10.9054 14.4214 10.963 14.9471 11.1811C15.4728 11.3992 15.9221 11.7682 16.2382 12.2414C16.5542 12.7145 16.7229 13.2707 16.7229 13.8397C16.7212 14.6044 16.4161 15.3373 15.8746 15.8775C15.3331 16.4177 14.5993 16.7212 13.8342 16.7214V16.7182Z" fill="#FF8800" stroke="white" stroke-width="0.1"/>
<path d="M5.40947 11.0066C5.32048 10.9977 5.23061 11.0075 5.14565 11.0354C5.06069 11.0634 4.98253 11.1088 4.91621 11.1687C4.84988 11.2287 4.79687 11.3019 4.76059 11.3836C4.72431 11.4653 4.70557 11.5537 4.70557 11.6431C4.70557 11.7325 4.72431 11.8209 4.76059 11.9026C4.79687 11.9843 4.84988 12.0575 4.91621 12.1175C4.98253 12.1775 5.06069 12.2229 5.14565 12.2508C5.23061 12.2787 5.32048 12.2885 5.40947 12.2796H7.07584C7.16483 12.2885 7.2547 12.2787 7.33966 12.2508C7.42462 12.2229 7.50278 12.1775 7.5691 12.1175C7.63543 12.0575 7.68844 11.9843 7.72472 11.9026C7.761 11.8209 7.77975 11.7325 7.77975 11.6431C7.77975 11.5537 7.761 11.4653 7.72472 11.3836C7.68844 11.3019 7.63543 11.2287 7.5691 11.1687C7.50278 11.1088 7.42462 11.0634 7.33966 11.0354C7.2547 11.0075 7.16483 10.9977 7.07584 11.0066H5.40947ZM9.66859 8.85411C9.75728 8.86243 9.84674 8.85215 9.93124 8.82393C10.0157 8.7957 10.0934 8.75016 10.1593 8.69021C10.2251 8.63026 10.2778 8.55723 10.3138 8.47578C10.3498 8.39433 10.3684 8.30627 10.3684 8.21723C10.3684 8.12818 10.3498 8.04012 10.3138 7.95868C10.2778 7.87723 10.2251 7.8042 10.1593 7.74425C10.0934 7.6843 10.0157 7.63875 9.93124 7.61053C9.84674 7.58231 9.75728 7.57203 9.66859 7.58035H5.40947C5.32048 7.57142 5.23061 7.58123 5.14565 7.60915C5.06069 7.63708 4.98253 7.68249 4.91621 7.74246C4.84988 7.80243 4.79687 7.87562 4.76059 7.95733C4.72431 8.03904 4.70557 8.12744 4.70557 8.21683C4.70557 8.30622 4.72431 8.39462 4.76059 8.47633C4.79687 8.55803 4.84988 8.63123 4.91621 8.6912C4.98253 8.75117 5.06069 8.79658 5.14565 8.8245C5.23061 8.85242 5.32048 8.86224 5.40947 8.85331L9.66859 8.85411ZM15.3685 12.3084C15.2636 12.2041 15.1216 12.1456 14.9737 12.1456C14.8257 12.1456 14.6838 12.2041 14.5789 12.3084L13.8341 13.052L13.0885 12.3084C13.0387 12.2487 12.977 12.2 12.9074 12.1655C12.8378 12.1309 12.7617 12.1112 12.684 12.1077C12.6063 12.1041 12.5288 12.1168 12.4563 12.1449C12.3838 12.1729 12.3179 12.2158 12.2629 12.2706C12.2078 12.3255 12.1648 12.3913 12.1366 12.4637C12.1084 12.5361 12.0956 12.6136 12.099 12.6913C12.1024 12.7689 12.1219 12.845 12.1563 12.9147C12.1908 12.9843 12.2393 13.0461 12.2989 13.096L13.0445 13.8396L12.2989 14.5824C12.2094 14.6898 12.1632 14.8268 12.1696 14.9665C12.176 15.1061 12.2345 15.2383 12.3335 15.3371C12.4325 15.4358 12.5648 15.494 12.7046 15.5001C12.8443 15.5062 12.9813 15.4598 13.0885 15.37L13.8341 14.6272L14.5789 15.37C14.6861 15.4598 14.8231 15.5062 14.9628 15.5001C15.1026 15.494 15.235 15.4358 15.334 15.3371C15.433 15.2383 15.4914 15.1061 15.4978 14.9665C15.5042 14.8268 15.458 14.6898 15.3685 14.5824L14.6237 13.8396L15.3685 13.096C15.4723 12.9912 15.5305 12.8497 15.5305 12.7022C15.5305 12.5547 15.4723 12.4132 15.3685 12.3084Z" fill="#FF8800" stroke="white" stroke-width="0.1"/>
</svg>
