<svg width="8" height="8" viewBox="0 0 8 8" fill="none" xmlns="http://www.w3.org/2000/svg">
<rect opacity="0.01" width="7.99998" height="7.99998" fill="#1B2337" fill-opacity="0.36"/>
<path fill-rule="evenodd" clip-rule="evenodd" d="M3.99999 0C6.20489 0 7.99998 1.79413 7.99998 3.99999C7.99998 6.20585 6.20585 7.99998 4.00095 7.99998C1.79413 7.99998 0 6.20585 0 3.99999C0 1.79413 1.79413 0 3.99999 0ZM3.99934 7.42652C2.10997 7.42652 0.5727 5.88924 0.5727 3.99988C0.5727 2.11052 2.10997 0.573242 3.99934 0.573242C5.88774 0.573242 7.42501 2.11052 7.42501 3.99988C7.42598 5.88828 5.8887 7.42652 3.99934 7.42652ZM4.39978 3.9913L5.63691 5.23228C5.7485 5.34387 5.74754 5.52472 5.63691 5.63535C5.58112 5.69115 5.508 5.71905 5.43489 5.71905C5.36082 5.71905 5.28771 5.69115 5.23191 5.63535L3.99382 4.39245L2.76535 5.60745C2.70955 5.66229 2.63644 5.69019 2.56429 5.69019C2.49022 5.69019 2.4171 5.66229 2.36131 5.60553C2.24972 5.49298 2.25068 5.31212 2.36323 5.20149L3.58978 3.98841L2.37285 2.76764C2.26222 2.65604 2.26222 2.47519 2.37381 2.3636C2.48541 2.252 2.66626 2.25297 2.77785 2.36456L3.9967 3.5863L5.23383 2.3636C5.34543 2.252 5.52724 2.25297 5.63787 2.36552C5.7485 2.47807 5.7485 2.65893 5.63595 2.76956L4.39978 3.9913Z" fill="#1B2337" fill-opacity="0.36"/>
</svg>
