<svg width="24" height="24" viewBox="0 0 24 24" fill="none" xmlns="http://www.w3.org/2000/svg">
<g id="Frame">
<g id="Group 427318722">
<path id="Vector" d="M21.0112 5.2002H2.98933C2.77855 5.2002 2.5764 5.28393 2.42736 5.43297C2.27831 5.58202 2.19458 5.78417 2.19458 5.99495V18.018C2.19458 18.2288 2.27831 18.4309 2.42736 18.58C2.5764 18.729 2.77855 18.8128 2.98933 18.8128H9.28378L11.4392 20.9681C11.5886 21.1175 11.7888 21.2002 12.0018 21.2002C12.2148 21.2002 12.4151 21.1175 12.5645 20.9681L14.7199 18.8128H21.0143C21.2251 18.8128 21.4273 18.729 21.5763 18.58C21.7254 18.4309 21.8091 18.2288 21.8091 18.018V5.99495C21.8078 5.78403 21.7232 5.58218 21.5737 5.43333C21.4243 5.28449 21.2221 5.20069 21.0112 5.2002ZM20.2164 17.2232H14.3861C14.1763 17.2232 13.9728 17.3059 13.8234 17.4553L11.9987 19.2801L10.1739 17.4553C10.0245 17.3059 9.82421 17.2232 9.61122 17.2232H3.78409V6.7897H20.2164V17.2232Z" fill="#00C684"/>
<path id="Vector_2" d="M6.23834 15.0695C6.63571 15.0695 6.85824 14.847 6.90593 14.4019V8.85454C6.85824 8.43173 6.63571 8.19966 6.23834 8.15198C5.84096 8.19966 5.62797 8.43173 5.60571 8.85454V14.4019C5.62797 14.847 5.84096 15.0695 6.23834 15.0695ZM10.2566 15.1045C10.7494 15.1045 11.1563 14.9296 11.4869 14.5768C11.5568 14.9042 11.7666 15.0695 12.1195 15.0695C12.5423 15.0695 12.7394 14.7993 12.7172 14.262V11.0671C12.7394 10.5045 12.5423 10.2247 12.1195 10.2247C11.7444 10.2724 11.5346 10.4599 11.4869 10.7874C11.2071 10.4123 10.797 10.2152 10.2566 10.1897C8.92142 10.3296 8.20932 11.1625 8.11395 12.6821C8.18707 14.2271 8.89917 15.0346 10.2566 15.1045ZM10.4315 11.3819C11.0386 11.4295 11.3788 11.8619 11.4487 12.6821C11.3788 13.5023 11.0386 13.9346 10.4315 13.9823C9.79883 13.96 9.45868 13.5245 9.41417 12.6821C9.46186 11.8619 9.80201 11.4295 10.4315 11.3819ZM14.8026 15.0695C15.2 15.0695 15.4098 14.847 15.4352 14.4019V12.1544C15.4575 11.5917 15.7404 11.2897 16.2777 11.242C16.7927 11.2897 17.0724 11.5917 17.1201 12.1544V14.4019C17.1423 14.847 17.3553 15.0695 17.7527 15.0695C18.1501 15.0695 18.3726 14.847 18.4203 14.4019V11.9096C18.3504 10.8319 17.7527 10.2597 16.6305 10.1897C16.0456 10.1897 15.6355 10.3646 15.4003 10.7174C15.3303 10.4123 15.13 10.2501 14.8026 10.2247C14.3575 10.2724 14.135 10.5172 14.135 10.9622V14.4019C14.1604 14.847 14.383 15.0695 14.8026 15.0695Z" fill="#00C684"/>
</g>
</g>
</svg>
