<svg width="24" height="24" viewBox="0 0 24 24" fill="none" xmlns="http://www.w3.org/2000/svg">
<g id="Frame">
<path id="Vector" d="M12.0003 20.3337C7.39795 20.3337 3.66699 16.6027 3.66699 12.0003C3.66699 7.39795 7.39795 3.66699 12.0003 3.66699C16.6027 3.66699 20.3337 7.39795 20.3337 12.0003" stroke="#1A91FF" stroke-width="1.5" stroke-linecap="round" stroke-linejoin="round"/>
<path id="Vector_2" d="M12 7C9.23858 7 7 9.23858 7 12" stroke="#1A91FF" stroke-width="1.5" stroke-linecap="round" stroke-linejoin="round"/>
<path id="Vector_3" d="M11.9997 13.6663C12.9201 13.6663 13.6663 12.9201 13.6663 11.9997C13.6663 11.0792 12.9201 10.333 11.9997 10.333C11.0792 10.333 10.333 11.0792 10.333 11.9997C10.333 12.9201 11.0792 13.6663 11.9997 13.6663Z" stroke="#1A91FF" stroke-width="1.5" stroke-linejoin="round"/>
<path id="&#232;&#183;&#175;&#229;&#190;&#132; 2" d="M17.2015 18.8603L17.3828 13.667L19.7471 14.8041" stroke="#1A91FF" stroke-width="1.3" stroke-linecap="round" stroke-linejoin="round"/>
<path id="&#230;&#164;&#173;&#229;&#156;&#134;&#229;&#189;&#162;" d="M17.2613 18.5579C17.3416 19.3215 16.6977 20.1422 15.6422 20.2531C14.5867 20.364 13.7862 19.6951 13.7059 18.9316C13.6257 18.168 14.2696 17.3473 15.3251 17.2364C16.3806 17.1254 17.1811 17.7943 17.2613 18.5579Z" fill="#F9FAFC" stroke="#1A91FF" stroke-width="1.3" stroke-linecap="round" stroke-linejoin="round"/>
</g>
</svg>
