<svg width="20" height="20" viewBox="0 0 20 20" fill="none" xmlns="http://www.w3.org/2000/svg">
<path d="M10.1566 1.88164C10.1566 1.39865 9.75329 0.987755 9.27072 0.987755C8.78815 0.987755 8.3776 1.39865 8.3776 1.88164V4.0803C8.3776 4.56329 8.78815 4.96698 9.27072 4.96698C9.75329 4.96698 10.1566 4.56329 10.1566 4.0803V1.88164ZM12.375 4.96698C12.0437 5.30579 12.0437 5.88249 12.3895 6.22851C12.7207 6.56012 13.3041 6.56012 13.6426 6.21409L15.148 4.70747C15.4865 4.37587 15.4793 3.79196 15.1336 3.44594C14.8023 3.10712 14.2189 3.12154 13.8803 3.46035L12.375 4.96698ZM4.89158 6.21409C5.2301 6.56012 5.81351 6.56012 6.14482 6.22851C6.49055 5.88249 6.49055 5.30579 6.15923 4.96698L4.6611 3.46035C4.32258 3.12154 3.73918 3.10712 3.40787 3.44594C3.06214 3.78475 3.06214 4.36865 3.39346 4.70025L4.89158 6.21409ZM1.82331 8.43439C1.34074 8.43439 0.937397 8.83807 0.937397 9.32106C0.937397 9.80405 1.34074 10.2077 1.82331 10.2077H4.02008C4.50265 10.2077 4.91319 9.80405 4.91319 9.32106C4.91319 8.83807 4.50265 8.43439 4.02008 8.43439H1.82331ZM16.7109 10.2077C17.1935 10.2077 17.6041 9.80405 17.6041 9.32106C17.6041 8.83807 17.1935 8.43439 16.7109 8.43439H14.5214C14.0388 8.43439 13.6282 8.83807 13.6282 9.32106C13.6282 9.80405 14.0388 10.2077 14.5214 10.2077H16.7109ZM3.39346 13.9202C3.05494 14.259 3.04774 14.8429 3.37905 15.1746C3.71757 15.5206 4.30097 15.5278 4.63949 15.1962L6.14482 13.6896C6.48334 13.3508 6.49055 12.774 6.15923 12.4352C5.82071 12.0964 5.23731 12.0892 4.89879 12.4209L3.39346 13.9202ZM10.1566 14.5691C10.1566 14.0861 9.75329 13.6751 9.27072 13.6751C8.78815 13.6751 8.3776 14.0861 8.3776 14.5691V16.7605C8.3776 17.2435 8.78815 17.6544 9.27072 17.6544C9.75329 17.6544 10.1566 17.2435 10.1566 16.7605V14.5691Z" fill="#FF8800" stroke="white" stroke-width="0.2"/>
<path d="M14.8599 16.5874C15.292 17.0272 16.0267 17.02 16.4516 16.5874C16.8766 16.1477 16.8766 15.4341 16.4516 14.9943L9.61643 8.10279C9.18429 7.67026 8.44963 7.67026 8.02468 8.10279C7.59253 8.54252 7.59973 9.25618 8.02468 9.6887L14.8599 16.5874Z" fill="#FF8800"/>
<path d="M10.9849 11.5341L8.73773 9.2778C8.55766 9.10479 8.49285 8.88133 8.67291 8.70831C8.83137 8.54972 9.06185 8.60739 9.24191 8.78761L11.4747 11.0295L10.9849 11.5341Z" fill="white"/>
</svg>
