<svg width="24" height="24" viewBox="0 0 24 24" fill="none" xmlns="http://www.w3.org/2000/svg">
<g id="Group">
<path id="Vector" opacity="0.01" d="M0 0H24V24H0V0Z" fill="#F5F7FA"/>
<path id="Rectangle 67" d="M2.21344 9.16892C2.07955 8.53472 2.26395 7.87617 2.79031 7.49792C4.07853 6.57219 7.00206 5 12 5C16.9979 5 19.9215 6.57219 21.2097 7.49792C21.736 7.87617 21.9204 8.53472 21.7866 9.16892L19.8984 18.1128C19.6761 19.166 18.6594 19.8493 17.5943 19.6944C13.4877 19.0971 10.5066 19.1108 6.39871 19.7012C5.33649 19.8539 4.32492 19.1707 4.10325 18.1207L2.21344 9.16892Z" stroke="#00C684" stroke-width="1.4"/>
<path id="Vector_2" d="M7.90918 11.583V14.4997" stroke="#00C684" stroke-width="1.5" stroke-linecap="round"/>
<path id="Vector_3" d="M10.6357 9.5V14.5" stroke="#00C684" stroke-width="1.5" stroke-linecap="round"/>
<path id="Vector_4" d="M13.3643 12.833V14.4997" stroke="#00C684" stroke-width="1.5" stroke-linecap="round"/>
<path id="Vector_5" d="M16.0908 11.583V14.4997" stroke="#00C684" stroke-width="1.5" stroke-linecap="round"/>
</g>
</svg>
