<svg width="24" height="24" viewBox="0 0 24 24" fill="none" xmlns="http://www.w3.org/2000/svg">
<g id="Frame">
<g id="Group 427319961">
<path id="Vector" d="M20 4.88867V11.9998" stroke="#6146FE" stroke-width="1.8" stroke-linecap="round" stroke-linejoin="round"/>
<path id="Vector_2" d="M4 12V19.1111" stroke="#6146FE" stroke-width="1.8" stroke-linecap="round" stroke-linejoin="round"/>
<path id="Vector_3" d="M8.07227 10.6904V13.3086" stroke="#6146FE" stroke-width="1.5" stroke-linecap="round"/>
<path id="Vector_4" d="M10.6907 9.38208V14.6184" stroke="#6146FE" stroke-width="1.5" stroke-linecap="round"/>
<path id="Vector_5" d="M13.3096 11.3457V12.6548" stroke="#6146FE" stroke-width="1.5" stroke-linecap="round"/>
<path id="Vector_6" d="M15.9277 10.6904V13.3086" stroke="#6146FE" stroke-width="1.5" stroke-linecap="round"/>
<path id="Vector_7" d="M4 12C4 16.4183 7.58173 20 12 20C12.6804 20 13.341 19.9151 13.9717 19.7552" stroke="#6146FE" stroke-width="1.8" stroke-linecap="round" stroke-linejoin="round"/>
<path id="Vector_8" d="M17.5553 17.7559C17.2858 18.016 16.9981 18.2574 16.6943 18.4779" stroke="#6146FE" stroke-width="1.8" stroke-linecap="round" stroke-linejoin="round"/>
<path id="Vector_9" d="M20 12C20 7.58174 16.4183 4 12 4C11.3196 4 10.659 4.08494 10.0283 4.2448" stroke="#6146FE" stroke-width="1.8" stroke-linecap="round" stroke-linejoin="round"/>
<path id="Vector_10" d="M6.44469 6.24414C6.71417 5.98401 7.00186 5.74263 7.30566 5.5221" stroke="#6146FE" stroke-width="1.8" stroke-linecap="round" stroke-linejoin="round"/>
</g>
</g>
</svg>
