<svg width="24" height="24" viewBox="0 0 24 24" fill="none" xmlns="http://www.w3.org/2000/svg">
<g id="Frame">
<path id="Vector" d="M12.0003 4.5V19.5C9.08366 19.5 6.91637 15.683 6.91637 15.683H4.50033C4.04009 15.683 3.66699 15.3099 3.66699 14.8496V9.08783C3.66699 8.62758 4.04009 8.2545 4.50033 8.2545H6.91637C6.91637 8.2545 9.08366 4.5 12.0003 4.5Z" stroke="#00C684" stroke-width="1.5" stroke-linejoin="round"/>
<path id="Vector_2" d="M15.333 8.25C15.5927 8.48188 15.828 8.74154 16.0347 9.0245C16.6408 9.85433 16.9997 10.8843 16.9997 12C16.9997 13.106 16.647 14.1278 16.0504 14.9539C15.84 15.2452 15.5993 15.5122 15.333 15.75" stroke="#00C684" stroke-width="1.5" stroke-linecap="round" stroke-linejoin="round"/>
<path id="Vector_3" d="M16.2656 19.161C18.7022 17.7067 20.334 15.0441 20.334 12.0003C20.334 9.00387 18.6395 6.38551 16.2656 4.91699" stroke="#00C684" stroke-width="1.5" stroke-linecap="round" stroke-dasharray="2 3"/>
</g>
</svg>
