<svg xmlns="http://www.w3.org/2000/svg" viewBox="0 0 48 48" width="48" height="48">
  <circle cx="24" cy="24" r="23" fill="#666" opacity="0.15"/>
  <circle cx="24" cy="24" r="22" fill="#666" opacity="0.08" stroke="#666" stroke-width="0.5" stroke-opacity="0.2"/>
  <ellipse cx="24" cy="36" rx="12" ry="8" fill="#666" opacity="0.6"/>
  <circle cx="24" cy="20" r="14" fill="#999" opacity="0.3"/>
  <path d="M11,20 Q11,12 24,10 Q37,12 37,20" fill="#999" opacity="0.5"/>
  <circle cx="24" cy="24" r="14" fill="#e0b090"/>
  <circle cx="19" cy="24" r="2" fill="#333"/><circle cx="29" cy="24" r="2" fill="#333"/><circle cx="19.5" cy="23.5" r="0.8" fill="#fff"/><circle cx="29.5" cy="23.5" r="0.8" fill="#fff"/>
  <line x1="16" y1="20" x2="21" y2="19" stroke="#555" stroke-width="1" stroke-linecap="round"/><line x1="27" y1="19" x2="32" y2="20" stroke="#555" stroke-width="1" stroke-linecap="round"/>
  <line x1="20" y1="30" x2="28" y2="30" stroke="#c07060" stroke-width="1.2" stroke-linecap="round"/>
  <circle cx="19" cy="24" r="4" fill="none" stroke="#666" stroke-width="0.8"/><circle cx="29" cy="24" r="4" fill="none" stroke="#666" stroke-width="0.8"/><line x1="23" y1="24" x2="25" y2="24" stroke="#666" stroke-width="0.8"/>
</svg>